<svg width="40" height="48" viewBox="0 0 40 48" fill="none" xmlns="http://www.w3.org/2000/svg">
<path d="M17.2179 0.00100708H2.21868C1.39025 0.00100708 0.71875 0.672505 0.71875 1.50093V46.4987C0.71875 47.3272 1.39025 47.9987 2.21868 47.9987H17.2179C18.0464 47.9987 18.7179 47.3272 18.7179 46.4987V1.50093C18.7179 0.672505 18.0463 0.00100708 17.2179 0.00100708ZM15.718 44.9988H3.7186V40.499H11.2182V37.4992H3.7186V32.9994H8.21838V29.9995H3.7186V25.4998H11.2182V22.4999H3.7186V18.0001H8.21838V15.0003H3.7186V10.5005H11.2182V7.50064H3.7186V3.00086H15.718V44.9988Z" fill="#B17955"/>
<path d="M37.1666 37.9494L32.2169 42.8841V5.11597L37.1516 10.0507L39.2665 7.93583L31.7669 0.436197C31.1818 -0.145399 30.237 -0.145399 29.652 0.436197L22.1523 7.93583L24.2672 10.0507L29.217 5.11597V42.8841L24.2822 37.9494L22.1673 40.0643L29.667 47.5639C30.252 48.1455 31.1968 48.1455 31.7819 47.5639L39.2815 40.0643L37.1666 37.9494Z" fill="#B17955"/>
</svg>
