<svg width="60" height="60" viewBox="0 0 60 60" fill="none" xmlns="http://www.w3.org/2000/svg">
<path d="M28.75 60H31.25C44.85 60 51.625 60 55.825 55.8C60 51.6 60 44.8 60 31.25V28.7C60 15.2 60 8.4 55.825 4.2C51.625 0 44.825 0 31.25 0H28.75C15.15 0 8.375 0 4.175 4.2C0 8.4 0 15.2 0 28.75V31.3C0 44.8 0 51.6 4.2 55.8C8.4 60 15.2 60 28.75 60Z" fill="#28A7E8"/>
<path d="M12.426 27.5919C21.9018 23.4644 28.2189 20.7431 31.3775 19.4283C40.4064 15.6741 42.2802 15.0221 43.504 15.0002C43.7731 14.9956 44.3723 15.0622 44.7633 15.3785C45.0883 15.6451 45.1798 16.0057 45.2255 16.2586C45.2662 16.5115 45.3221 17.0878 45.2764 17.5378C44.7889 22.6768 42.6713 35.1477 41.5947 40.9037C41.1428 43.3393 40.2439 44.1559 39.3755 44.2356C37.4865 44.4093 36.0544 42.9884 34.2262 41.7904C31.3673 39.915 29.7525 38.7481 26.9748 36.9184C23.7654 34.8039 25.8474 33.6415 27.6755 31.7423C28.1529 31.2451 36.4708 23.6813 36.6282 22.9952C36.6485 22.9094 36.6689 22.5895 36.4759 22.4209C36.288 22.2518 36.0086 22.3097 35.8055 22.3554C35.516 22.4204 30.9508 25.4408 22.0945 31.4163C20.7996 32.307 19.6266 32.7412 18.5703 32.7183C17.4125 32.6934 15.1783 32.0622 13.5178 31.5229C11.4865 30.8612 9.86651 30.5113 10.0087 29.3876C10.0798 28.8026 10.8873 28.2038 12.426 27.5919Z" fill="white"/>
</svg>
