<svg width="48" height="48" viewBox="0 0 48 48" fill="none" xmlns="http://www.w3.org/2000/svg">
<path d="M36.4801 19.9909V7.20542L24 0L11.5199 7.20542V19.991L0.447266 26.3837V40.7946L12.9274 48L24 41.6073L35.0726 48L47.5528 40.7946V26.3836L36.4801 19.9909ZM11.5199 43.9367L3.26229 39.1691V29.6342L11.5199 34.4018V43.9367ZM4.66985 27.1964L12.9274 22.4289L21.185 27.1964L12.9274 31.9639L4.66985 27.1964ZM22.5925 39.1692L14.3349 43.9368V34.4017L22.5925 29.6341V39.1692ZM22.5925 24.7584L14.3349 19.9909V10.4559L22.5925 15.2234V24.7584ZM15.7425 8.01805L24 3.25059L32.2576 8.01805L24 12.7855L15.7425 8.01805ZM33.6651 10.4559V19.9909L25.4075 24.7584V15.2234L33.6651 10.4559ZM33.6651 43.9367L25.4075 39.1691V29.6342L33.6651 34.4018V43.9367ZM26.8151 27.1964L35.0726 22.4289L43.3302 27.1964L35.0726 31.9639L26.8151 27.1964ZM44.7377 39.1692L36.4801 43.9367V34.4017L44.7377 29.6341V39.1692Z" fill="#B17955"/>
</svg>
