<svg width="16" height="16" viewBox="0 0 16 16" fill="none" xmlns="http://www.w3.org/2000/svg">
<path d="M8.00002 0C8.3607 0 8.69342 0.194222 8.87078 0.50828L11.1141 4.48082L15.1897 5.26815C15.5476 5.3373 15.8396 5.59573 15.9516 5.94263C16.0637 6.28952 15.9781 6.66991 15.7282 6.93536L12.7697 10.0788L13.5174 14.845C13.575 15.2125 13.4239 15.5816 13.1252 15.8031C12.8265 16.0247 12.4295 16.0622 12.0945 15.9005L8.00002 13.923L3.9055 15.9005C3.57058 16.0622 3.17355 16.0247 2.87483 15.8031C2.57611 15.5816 2.42505 15.2125 2.48269 14.845L3.23034 10.0788L0.271822 6.93536C0.0219778 6.66991 -0.0636177 6.28952 0.0484322 5.94263C0.160482 5.59573 0.452423 5.3373 0.810347 5.26815L4.88595 4.48082L7.12927 0.50828C7.30662 0.194222 7.63935 0 8.00002 0Z" fill="#B3BCC5"/>
</svg>
