<svg width="60" height="43" viewBox="0 0 60 43" fill="none" xmlns="http://www.w3.org/2000/svg">
<path d="M58.744 6.59966C58.42 5.30539 57.7602 4.11953 56.8313 3.16185C55.9024 2.20418 54.7371 1.50861 53.4533 1.1454C48.7627 2.43825e-07 30 0 30 0C30 0 11.2373 8.12748e-08 6.54667 1.25448C5.26287 1.61769 4.09765 2.31326 3.1687 3.27094C2.23976 4.22861 1.57999 5.41447 1.25604 6.70874C0.397578 11.4691 -0.0223418 16.2982 0.00155895 21.1353C-0.0290414 26.0088 0.390905 30.8747 1.25604 35.6709C1.61318 36.9249 2.28773 38.0657 3.21451 38.9829C4.14129 39.9001 5.28898 40.5628 6.54667 40.907C11.2373 42.1614 30 42.1614 30 42.1614C30 42.1614 48.7627 42.1614 53.4533 40.907C54.7371 40.5438 55.9024 39.8482 56.8313 38.8905C57.7602 37.9328 58.42 36.747 58.744 35.4527C59.5958 30.7282 60.0157 25.9359 59.9984 21.1353C60.029 16.2618 59.6091 11.3959 58.744 6.59966Z" fill="#FF0000"/>
<path d="M23.8638 30.053L39.5448 21.1352L23.8638 12.2175V30.053Z" fill="white"/>
</svg>
